<?xml version="1.0" encoding="UTF-8" standalone="no"?>
<!-- Created with Inkscape (http://www.inkscape.org/) -->

<svg
   width="264.58334mm"
   height="57.119755mm"
   viewBox="0 0 264.58334 57.119755"
   version="1.1"
   id="svg1"
   inkscape:version="1.3.2 (091e20e, 2023-11-25, custom)"
   sodipodi:docname="Alfamidi 2015.svg"
   xmlns:inkscape="http://www.inkscape.org/namespaces/inkscape"
   xmlns:sodipodi="http://sodipodi.sourceforge.net/DTD/sodipodi-0.dtd"
   xmlns="http://www.w3.org/2000/svg"
   xmlns:svg="http://www.w3.org/2000/svg">
  <sodipodi:namedview
     id="namedview1"
     pagecolor="#ffffff"
     bordercolor="#000000"
     borderopacity="0.25"
     inkscape:showpageshadow="2"
     inkscape:pageopacity="0.0"
     inkscape:pagecheckerboard="0"
     inkscape:deskcolor="#d1d1d1"
     inkscape:document-units="mm"
     inkscape:zoom="1"
     inkscape:cx="523"
     inkscape:cy="173.5"
     inkscape:window-width="1920"
     inkscape:window-height="1094"
     inkscape:window-x="-11"
     inkscape:window-y="-11"
     inkscape:window-maximized="1"
     inkscape:current-layer="layer1" />
  <defs
     id="defs1" />
  <g
     inkscape:label="Layer 1"
     inkscape:groupmode="layer"
     id="layer1"
     transform="translate(77.787501,-30.95625)">
    <path
       inkscape:connector-curvature="0"
       id="path5466"
       style="fill:#ed1d24;fill-opacity:1;fill-rule:nonzero;stroke:none;stroke-width:8.52406"
       d="m -20.446121,34.672742 c 0,-2.045775 -1.67924,-3.716492 -3.733539,-3.716492 h -49.874301 c -2.0543,0 -3.73354,1.670717 -3.73354,3.716492 V 84.35099 c 0,2.045775 1.67924,3.725016 3.73354,3.725016 h 49.874301 c 2.054299,0 3.733539,-1.679241 3.733539,-3.725016 z" />
    <path
       inkscape:connector-curvature="0"
       id="path5470"
       style="fill:#ffffff;fill-opacity:1;fill-rule:nonzero;stroke:none;stroke-width:8.52406"
       d="m -49.11681,49.263383 2.991946,9.683337 c -2.940802,0.946171 -5.336064,2.284449 -7.211358,3.989262 z m 20.381038,4.219412 v -4.19384 c -1.261562,3.111284 -3.87845,5.233775 -6.716963,6.682866 -2.514599,-7.109069 -4.909861,-13.851604 -5.157059,-14.482385 -0.519968,-1.338278 -1.014364,-2.327069 -2.190684,-3.205048 -2.01168,-1.483187 -6.316332,-1.406471 -6.316332,-1.406471 0,0 -4.304653,-0.07672 -6.316332,1.406471 -1.17632,0.877979 -1.670716,1.86677 -2.190685,3.205048 -0.528492,1.329754 -10.578364,29.825701 -11.217668,31.683948 -0.639305,1.849721 -1.074032,4.031882 0,5.796363 1.082556,1.773005 2.991947,3.179476 5.480974,3.179476 2.489026,0 4.747903,-1.056984 5.677026,-4.108599 0.929123,-3.043091 1.397947,-4.55185 1.397947,-4.55185 l 0.434727,-1.568428 c 1.832674,-1.849722 5.455401,-4.065979 12.317273,-4.176792 l 1.585476,5.74522 c 0,0 0.468823,1.508759 1.397946,4.55185 0.937648,3.051615 3.196525,4.108599 5.685552,4.108599 2.480502,0 4.389892,-1.406471 5.472448,-3.179476 1.074032,-1.764481 0.639305,-3.946642 0,-5.796363 -0.221625,-0.639305 -1.534331,-4.364321 -3.188,-9.061081 2.608364,-2.548695 3.844354,-6.282236 3.844354,-10.629508" />
    <path
       inkscape:connector-curvature="0"
       id="path5538"
       style="fill:#005bab;fill-opacity:1;fill-rule:nonzero;stroke:none;stroke-width:8.52406"
       d="m 29.823696,44.00233 c -2.940803,0 -4.705284,2.318545 -4.705284,5.540642 v 2.165112 20.747573 2.165113 c 0,3.222096 1.764481,5.540641 4.705284,5.540641 2.949326,0 4.713808,-2.318545 4.713808,-5.540641 V 72.455657 51.708084 49.542972 c 0,-3.222097 -1.764482,-5.540642 -4.713808,-5.540642" />
    <path
       inkscape:connector-curvature="0"
       id="path5542"
       style="fill:#005bab;fill-opacity:1;fill-rule:nonzero;stroke:none;stroke-width:8.52406"
       d="m 51.968366,53.982304 h -2.190685 v -1.449091 c 0,-1.517283 0.877979,-2.13954 3.341433,-1.883818 2.471978,0.255722 3.026043,-1.355326 3.026043,-2.668031 0,-1.014365 -0.247198,-1.568428 -1.065508,-2.386739 -1.636621,-1.645145 -5.78784,-1.594 -5.78784,-1.594 0,0 -3.742063,-0.179005 -6.299283,1.841198 -2.565744,2.020203 -2.378214,5.591787 -2.378214,5.591787 0,0 -0.0085,0.980266 -0.0085,2.548694 h -0.392108 c -1.704812,0 -3.528962,1.00584 -3.528962,3.162428 0,2.148064 2.071347,3.162428 3.742064,3.162428 h 0.179006 v 14.968257 c 0,2.574267 1.576952,4.884289 4.739379,4.884289 3.162429,0 4.432514,-2.258877 4.432514,-4.764952 V 60.30716 h 2.190685 c 1.244513,0 3.690919,-0.596685 3.690919,-3.060139 0,-2.454931 -1.917914,-3.264717 -3.690919,-3.264717" />
    <path
       inkscape:connector-curvature="0"
       id="path5546"
       style="fill:#005bab;fill-opacity:1;fill-rule:nonzero;stroke:none;stroke-width:8.52406"
       d="m 64.856747,66.907342 c 0,-5.932749 2.889657,-6.972685 4.82462,-6.972685 0.09377,0 0.179005,0.0085 0.264246,0.0085 2.190685,0.110813 3.980739,1.636621 3.980739,7.219883 0,5.489497 -1.883819,6.580577 -3.869926,6.674342 -0.102289,0.0085 -0.213102,0.0085 -0.323915,0.0085 -2.216257,0 -4.875764,-1.005839 -4.875764,-6.938588 M 78.640158,53.115405 c -1.542855,0 -2.753272,0.630782 -3.563058,1.69629 -1.500236,-1.00584 -3.392578,-1.69629 -5.659979,-1.69629 -9.623668,0 -13.851604,7.245455 -13.851604,14.149947 0,7.484129 5.114438,13.229348 13.868652,13.229348 2.045776,0 3.980738,-0.707497 5.591786,-1.764481 0.809786,1.099604 2.037252,1.764481 3.614203,1.764481 2.940803,0 4.705284,-2.318545 4.705284,-5.540641 V 58.656048 c 0,-3.222097 -1.764481,-5.540643 -4.705284,-5.540643" />
    <path
       inkscape:connector-curvature="0"
       id="path5550"
       style="fill:#005bab;fill-opacity:1;fill-rule:nonzero;stroke:none;stroke-width:8.52406"
       d="m 2.3404082,65.525591 3.5289626,-11.43077 3.5289627,11.43077 z M 21.502505,73.043816 C 20.999585,71.577677 13.029585,48.988907 12.611906,47.931922 12.20275,46.874939 11.810644,46.090725 10.872997,45.400275 9.2789966,44.223954 5.8693708,44.275099 5.8693708,44.275099 c 0,0 -3.4096257,-0.05115 -5.00362574,1.125176 -0.92912301,0.69045 -1.32122996,1.474664 -1.73890912,2.531647 -0.41767914,1.056985 -8.37915524,23.645755 -8.89059914,25.111894 -0.5029198,1.474664 -0.8524068,3.196524 0,4.602995 0.8524065,1.397947 2.3696899,2.514599 4.3387488,2.514599 1.9775829,0 3.7676364,-0.835358 4.50923002,-3.247669 0.73306953,-2.420834 1.10812836,-3.614203 1.10812836,-3.614203 H 5.8693708 11.554921 c 0,0 0.366536,1.193369 1.108129,3.614203 0.733069,2.412311 2.531647,3.247669 4.500707,3.247669 1.969058,0 3.486342,-1.116652 4.338748,-2.514599 0.852406,-1.406471 0.511444,-3.128331 0,-4.602995" />
    <path
       inkscape:connector-curvature="0"
       id="path5554"
       style="fill:#ed1d24;fill-opacity:1;fill-rule:nonzero;stroke:none;stroke-width:8.52406"
       d="m 124.17997,52.821327 c -5.0633,0 -10.00726,6.768107 -11.74616,9.410566 0.0938,-0.664876 0.24719,-1.517282 0.4944,-2.574267 0.40915,-1.755957 0.65634,-4.142695 -0.4944,-5.591786 -0.65635,-0.826834 -1.67924,-1.244513 -3.0431,-1.244513 -4.68823,0 -9.30828,5.975369 -11.285855,8.890599 0.247197,-0.877979 0.519968,-1.909391 0.690449,-2.59984 0.340963,-1.355326 0.903551,-3.631251 -0.04262,-4.926908 -0.562589,-0.758642 -1.525808,-1.142225 -2.87261,-1.142225 -2.190685,0 -4.645615,1.005839 -4.747904,1.048459 l -0.537016,0.204578 0.477348,0.281294 c 0.0085,0 0.6734,0.613733 0.153433,4.210888 -0.886503,6.222567 -2.949326,13.681123 -3.801733,16.596353 -0.451775,1.559904 -0.349487,2.787369 0.298342,3.6483 0.613733,0.81831 1.747434,1.270086 3.179476,1.270086 2.071348,0 3.904022,-0.724546 3.972215,-0.758642 l 0.332437,-0.127861 -0.204577,-0.281295 c -0.0085,-0.01705 -1.056983,-1.559903 0.289819,-4.568898 4.688235,-10.382311 8.455876,-14.516481 9.504336,-15.232503 0.22162,-0.153433 0.4262,-0.23015 0.57111,-0.23015 0.11933,0 0.17048,0.04262 0.19605,0.07672 0.0938,0.102289 0.12786,0.306866 0.0938,0.571112 -0.3921,3.580107 -1.90086,9.674813 -2.88966,13.706695 -0.21309,0.869455 -0.40915,1.628097 -0.55406,2.233305 -0.37506,1.576953 -0.25572,2.770322 0.36654,3.546011 0.55407,0.707497 1.51728,1.065509 2.84703,1.065509 2.09693,0 3.96369,-0.758642 4.03189,-0.784215 l 0.34096,-0.144909 -0.23015,-0.289818 c -0.009,-0.0085 -1.02288,-1.329754 0.36653,-4.55185 3.5034,-8.038193 8.16606,-14.26076 9.39353,-15.155787 0.3921,-0.281293 0.61373,-0.323914 0.71601,-0.323914 0.0682,0 0.11082,0.01705 0.14491,0.05967 0.12787,0.14491 0.16196,0.511444 0.0852,0.886503 -0.0341,0.170482 -0.14492,0.698973 -0.31539,1.466139 -0.59669,2.736225 -1.8412,8.430299 -2.54018,12.342845 -0.4262,2.395263 -0.179,4.159744 0.72455,5.2423 0.69898,0.826834 1.77301,1.253038 3.188,1.253038 2.32707,0 4.56038,-1.46614 4.64561,-1.534332 l 0.29835,-0.196053 -0.26425,-0.238675 c -0.017,-0.0085 -1.69629,-1.602523 -0.8524,-6.265187 0.55406,-3.102759 1.3127,-6.699915 1.85824,-9.316802 0.2813,-1.32123 0.50293,-2.361166 0.61373,-2.949327 l 0.0597,-0.281293 c 0.26425,-1.389424 0.78422,-3.980739 -0.48587,-5.523594 -0.64783,-0.775691 -1.67072,-1.176321 -3.02604,-1.176321" />
    <path
       inkscape:connector-curvature="0"
       id="path5558"
       style="fill:#ed1d24;fill-opacity:1;fill-rule:nonzero;stroke:none;stroke-width:8.52406"
       d="m 138.44329,53.094097 c -2.57427,0 -5.14853,0.954695 -5.25935,0.988791 l -0.30686,0.119337 0.17048,0.289818 c 0.41768,0.707498 0.76717,1.755957 0.40916,4.577423 -0.18753,1.474663 -0.84389,4.253508 -1.54286,7.202835 -0.68192,2.829988 -1.37237,5.762267 -1.73038,7.867711 -0.36654,2.216257 -0.11082,3.869925 0.76716,4.901337 0.7075,0.835357 1.8071,1.261562 3.29029,1.261562 2.84704,0 4.90986,-1.517284 5.00363,-1.576953 l 0.28981,-0.213101 -0.28981,-0.221626 c -0.0171,-0.01705 -1.68777,-1.397946 -0.94617,-6.14585 0.79273,-5.063294 2.31001,-10.953423 3.46929,-14.789252 0.41767,-1.36385 0.34949,-2.429358 -0.18753,-3.14538 -0.55406,-0.750117 -1.58548,-1.116652 -3.13686,-1.116652" />
    <path
       inkscape:connector-curvature="0"
       id="path5562"
       style="fill:#ed1d24;fill-opacity:1;fill-rule:nonzero;stroke:none;stroke-width:8.52406"
       d="m 143.06504,49.363967 c 0.8865,-1.713337 1.05698,-3.051616 0.49439,-3.980738 -0.48587,-0.809786 -1.4917,-1.227466 -2.9067,-1.227466 -2.31854,0 -4.62857,0.895028 -4.72233,0.937648 l -0.33244,0.127861 0.2131,0.289818 c 0.25572,0.349487 0.2472,1.039936 -0.0426,2.105443 -0.26425,0.954696 -0.4603,2.003156 0.50291,2.523124 0.61374,0.323915 1.36386,0.494395 2.20774,0.494395 2.19921,0 4.37284,-1.099604 4.46661,-1.150748 l 0.0767,-0.04262 z" />
    <path
       inkscape:connector-curvature="0"
       id="path5566"
       style="fill:#ed1d24;fill-opacity:1;fill-rule:nonzero;stroke:none;stroke-width:8.52406"
       d="m 181.35258,53.094097 c -2.58279,0 -5.14854,0.954695 -5.25935,0.988791 l -0.30687,0.119337 0.17049,0.289818 c 0.41767,0.707498 0.75863,1.755957 0.40915,4.577423 -0.17901,1.474663 -0.84388,4.253508 -1.54285,7.19431 -0.67341,2.838513 -1.37238,5.770792 -1.73039,7.876236 -0.36653,2.216257 -0.11082,3.869925 0.75864,4.901337 0.71602,0.835357 1.82415,1.261562 3.29882,1.261562 2.84703,0 4.90985,-1.517284 4.99509,-1.576953 l 0.29835,-0.213101 -0.28982,-0.221626 c -0.0171,-0.01705 -1.69629,-1.397946 -0.94617,-6.14585 0.79274,-5.063294 2.31855,-10.953423 3.4693,-14.789252 0.41767,-1.36385 0.34948,-2.429358 -0.17901,-3.14538 -0.56259,-0.750117 -1.594,-1.116652 -3.14538,-1.116652" />
    <path
       inkscape:connector-curvature="0"
       id="path5570"
       style="fill:#ed1d24;fill-opacity:1;fill-rule:nonzero;stroke:none;stroke-width:8.52406"
       d="m 186.46872,45.384081 c -0.49439,-0.809786 -1.49171,-1.227466 -2.9067,-1.227466 -2.31855,0 -4.62857,0.895027 -4.72234,0.937647 l -0.33243,0.127862 0.2131,0.289817 c 0.25572,0.349487 0.24719,1.048461 -0.0426,2.105444 -0.26425,0.946172 -0.4603,2.003155 0.50292,2.523124 0.62226,0.323914 1.36385,0.494395 2.21626,0.494395 2.19068,0 4.36432,-1.099604 4.45808,-1.150748 l 0.0767,-0.04262 0.0426,-0.07672 c 0.89503,-1.713337 1.05698,-3.051616 0.49439,-3.980738" />
    <path
       inkscape:connector-curvature="0"
       id="path5574"
       style="fill:#ed1d24;fill-opacity:1;fill-rule:nonzero;stroke:none;stroke-width:8.52406"
       d="m 152.19005,74.211614 c -0.80979,0 -0.92912,-1.628095 -0.92912,-2.599839 0,-4.611519 2.48902,-10.535744 3.31585,-11.652396 1.03142,-1.389423 1.97759,-2.003155 3.0772,-2.003155 2.33558,0 4.10859,2.09692 4.56037,2.668032 -0.48588,0.758641 -2.57427,4.065979 -3.94664,6.452717 -1.49172,2.565743 -3.24767,4.756428 -4.15975,5.821936 -0.56259,0.656353 -1.36385,1.312705 -1.91791,1.312705 m 16.43439,-27.617968 c -2.15659,0 -4.49217,1.329754 -4.58594,1.389422 l -0.21311,0.119337 0.0938,0.221626 c 0.2813,0.681926 0.3154,2.190685 0.0852,3.673872 -0.14491,0.929123 -0.37505,2.071348 -0.49439,2.659508 -1.34681,-0.81831 -3.2562,-1.32123 -5.08035,-1.32123 -1.69629,0 -4.96101,0.383583 -7.80804,2.991947 -4.79904,4.381369 -7.65461,10.603935 -7.65461,16.656021 0,4.918385 1.82416,7.313648 5.59179,7.313648 3.53748,0 5.80489,-2.182161 7.82509,-4.415465 1.3468,-1.483188 2.82146,-3.60568 3.66534,-4.88429 -0.17047,1.167797 -0.36653,2.966375 -0.36653,4.679711 0,2.855562 1.77301,4.620044 4.62856,4.620044 2.65099,0 4.33875,-1.525808 4.41547,-1.594001 l 0.17049,-0.161957 -0.12787,-0.196053 c -0.0171,-0.01705 -1.61105,-2.497551 -0.76716,-7.995573 0.90355,-5.881604 2.40378,-12.035979 3.38405,-16.110481 0.30687,-1.253038 0.57111,-2.32707 0.75864,-3.14538 0.34096,-1.534332 0.20458,-2.650984 -0.40062,-3.409626 -0.59669,-0.733069 -1.61105,-1.09108 -3.11982,-1.09108" />
  </g>
</svg>
