<?xml version="1.0" encoding="UTF-8"?>
<svg xmlns="http://www.w3.org/2000/svg" xmlns:xlink="http://www.w3.org/1999/xlink" width="512px" height="129px" viewBox="0 0 513 129" version="1.1">
<g id="surface1">
<path style=" stroke:none;fill-rule:nonzero;fill:rgb(1.176471%,1.176471%,1.176471%);fill-opacity:1;" d="M 124.277344 44.8125 L 141.972656 44.8125 C 151.722656 44.8125 157.976562 50.796875 157.976562 58.890625 C 157.976562 66.984375 151.800781 73.101562 141.972656 73.101562 L 132.996094 73.101562 L 132.996094 89.417969 L 124.277344 89.417969 Z M 140.929688 66.417969 C 145.613281 66.417969 149.253906 64.0625 149.253906 58.957031 C 149.253906 53.796875 145.613281 51.496094 140.929688 51.496094 L 132.996094 51.496094 L 132.996094 66.402344 L 140.929688 66.402344 Z M 140.929688 66.417969 "/>
<path style=" stroke:none;fill-rule:nonzero;fill:rgb(1.176471%,1.176471%,1.176471%);fill-opacity:1;" d="M 159.070312 73.292969 C 159.070312 63.855469 165.246094 56.214844 175.261719 56.214844 C 186.902344 56.214844 192.496094 65.523438 191.203125 75.53125 L 167.066406 75.53125 C 167.648438 80.882812 170.445312 84.191406 175.722656 84.191406 C 179.433594 84.191406 181.769531 82.472656 183.007812 79.796875 L 190.871094 79.796875 C 188.984375 86.675781 183.457031 90.375 175.527344 90.375 C 164.667969 90.375 159.070312 82.859375 159.070312 73.292969 Z M 183.457031 69.597656 C 182.746094 65.199219 180.078125 62.394531 175.195312 62.394531 C 170.644531 62.394531 168.109375 65.265625 167.265625 69.597656 Z M 183.457031 69.597656 "/>
<path style=" stroke:none;fill-rule:nonzero;fill:rgb(1.176471%,1.176471%,1.176471%);fill-opacity:1;" d="M 195.585938 57.171875 L 203.582031 57.171875 L 203.582031 63.042969 C 205.074219 59.730469 208.660156 56.925781 213.925781 56.925781 L 214.390625 56.925781 L 214.390625 64.257812 L 213.925781 64.257812 C 205.796875 64.257812 203.78125 69.804688 203.78125 75.917969 L 203.78125 89.429688 L 195.585938 89.429688 Z M 195.585938 57.171875 "/>
<path style=" stroke:none;fill-rule:nonzero;fill:rgb(1.176471%,1.176471%,1.176471%);fill-opacity:1;" d="M 217.632812 57.175781 L 225.628906 57.175781 L 225.628906 62.214844 C 227.453125 58.453125 231.226562 56.347656 235.382812 56.347656 C 240.449219 56.347656 243.972656 58.519531 245.726562 62.332031 C 247.945312 58.636719 251.96875 56.347656 256.335938 56.347656 C 263.949219 56.347656 267.910156 60.9375 267.910156 68.769531 L 267.910156 89.417969 L 259.714844 89.417969 L 259.714844 70.179688 C 259.714844 65.589844 257.828125 62.914062 253.789062 62.914062 C 249.433594 62.914062 246.902344 66.355469 246.902344 72.222656 L 246.902344 89.433594 L 238.640625 89.433594 L 238.640625 70.179688 C 238.640625 65.589844 236.820312 62.914062 232.78125 62.914062 C 228.363281 62.914062 225.828125 66.355469 225.828125 72.222656 L 225.828125 89.433594 L 217.632812 89.433594 Z M 217.632812 57.175781 "/>
<path style=" stroke:none;fill-rule:nonzero;fill:rgb(1.176471%,1.176471%,1.176471%);fill-opacity:1;" d="M 272.132812 73.292969 C 272.132812 63.414062 277.53125 56.277344 286.699219 56.277344 C 291.386719 56.277344 294.894531 58.386719 297.113281 62.019531 L 297.113281 57.167969 L 305.105469 57.167969 L 305.105469 89.414062 L 297.113281 89.414062 L 297.113281 84.578125 C 294.894531 88.148438 291.386719 90.320312 286.699219 90.320312 C 277.53125 90.320312 272.132812 83.171875 272.132812 73.292969 Z M 288.652344 83.75 C 294.050781 83.75 296.980469 79.484375 296.980469 73.304688 C 296.980469 67.125 294.050781 62.859375 288.652344 62.859375 C 283.257812 62.859375 280.328125 67.125 280.328125 73.304688 C 280.328125 79.484375 283.324219 83.75 288.652344 83.75 Z M 288.652344 83.75 "/>
<path style=" stroke:none;fill-rule:nonzero;fill:rgb(1.176471%,1.176471%,1.176471%);fill-opacity:1;" d="M 313.554688 63.542969 L 308.539062 63.542969 L 308.539062 57.171875 L 313.554688 57.171875 L 313.554688 48.507812 L 321.8125 48.507812 L 321.8125 57.171875 L 328.386719 57.171875 L 328.386719 63.542969 L 321.8125 63.542969 L 321.8125 89.414062 L 313.554688 89.414062 Z M 313.554688 63.542969 "/>
<path style=" stroke:none;fill-rule:nonzero;fill:rgb(1.176471%,1.176471%,1.176471%);fill-opacity:1;" d="M 329.808594 73.292969 C 329.808594 63.414062 335.207031 56.277344 344.378906 56.277344 C 349.0625 56.277344 352.570312 58.386719 354.789062 62.019531 L 354.789062 57.167969 L 362.785156 57.167969 L 362.785156 89.414062 L 354.789062 89.414062 L 354.789062 84.578125 C 352.570312 88.148438 349.0625 90.320312 344.378906 90.320312 C 335.207031 90.320312 329.808594 83.171875 329.808594 73.292969 Z M 346.328125 83.75 C 351.726562 83.75 354.65625 79.484375 354.65625 73.304688 C 354.65625 67.125 351.726562 62.859375 346.328125 62.859375 C 340.933594 62.859375 338.003906 67.125 338.003906 73.304688 C 338.003906 79.484375 341 83.75 346.328125 83.75 Z M 346.328125 83.75 "/>
<path style=" stroke:none;fill-rule:nonzero;fill:rgb(1.176471%,1.176471%,1.176471%);fill-opacity:1;" d="M 369.972656 44.777344 L 388.316406 44.777344 C 396.644531 44.777344 402.039062 49.5625 402.039062 56.066406 C 402.039062 60.65625 399.503906 63.964844 395.53125 65.621094 C 400.730469 67.082031 404.441406 71.230469 404.441406 76.648438 C 404.441406 84.109375 399.042969 89.394531 389.675781 89.394531 L 369.960938 89.394531 L 369.960938 44.777344 Z M 386.890625 63.253906 C 390.796875 63.253906 393.660156 61.210938 393.660156 57.136719 C 393.660156 53.066406 390.597656 51.214844 386.824219 51.214844 L 378.5 51.214844 L 378.5 63.265625 L 386.890625 63.265625 Z M 388.316406 82.957031 C 392.417969 82.957031 395.863281 80.914062 395.863281 76.195312 C 395.863281 71.539062 392.417969 69.382812 388 69.382812 L 378.5 69.382812 L 378.5 82.957031 Z M 388.316406 82.957031 "/>
<path style=" stroke:none;fill-rule:nonzero;fill:rgb(1.176471%,1.176471%,1.176471%);fill-opacity:1;" d="M 407.183594 73.257812 C 407.183594 63.378906 412.582031 56.242188 421.753906 56.242188 C 426.4375 56.242188 429.945312 58.351562 432.164062 61.984375 L 432.164062 57.136719 L 440.160156 57.136719 L 440.160156 89.378906 L 432.164062 89.378906 L 432.164062 84.542969 C 429.945312 88.113281 426.4375 90.285156 421.753906 90.285156 C 412.582031 90.285156 407.183594 83.136719 407.183594 73.257812 Z M 423.707031 83.71875 C 429.101562 83.71875 432.03125 79.449219 432.03125 73.269531 C 432.03125 67.089844 429.101562 62.824219 423.707031 62.824219 C 418.308594 62.824219 415.378906 67.089844 415.378906 73.269531 C 415.378906 79.449219 418.375 83.71875 423.707031 83.71875 Z M 423.707031 83.71875 "/>
<path style=" stroke:none;fill-rule:nonzero;fill:rgb(1.176471%,1.176471%,1.176471%);fill-opacity:1;" d="M 446.164062 57.140625 L 454.160156 57.140625 L 454.160156 62.234375 C 456.046875 58.40625 460.082031 56.3125 464.308594 56.3125 C 472.054688 56.3125 476.078125 60.902344 476.078125 68.738281 L 476.078125 89.382812 L 467.882812 89.382812 L 467.882812 70.144531 C 467.882812 65.554688 465.933594 62.878906 461.644531 62.878906 C 457.023438 62.878906 454.359375 66.320312 454.359375 72.1875 L 454.359375 89.398438 L 446.164062 89.398438 Z M 446.164062 57.140625 "/>
<path style=" stroke:none;fill-rule:nonzero;fill:rgb(1.176471%,1.176471%,1.176471%);fill-opacity:1;" d="M 490.171875 73.710938 L 490.171875 89.394531 L 481.976562 89.394531 L 481.976562 44.777344 L 490.171875 44.777344 L 490.171875 70.402344 L 501.945312 57.152344 L 511.761719 57.152344 L 498.367188 71.746094 L 513.527344 89.394531 L 503.445312 89.394531 Z M 490.171875 73.710938 "/>
<path style=" stroke:none;fill-rule:nonzero;fill:rgb(0%,39.215687%,100%);fill-opacity:1;" d="M 98.953125 76.113281 C 98.953125 88.707031 92.527344 100.03125 80.980469 107.945312 L 49.46875 129.277344 L 17.972656 107.945312 C 6.441406 100.03125 0 88.71875 0 76.113281 C 0 67.863281 2.640625 60.273438 9.410156 51.546875 L 49.484375 0 L 89.570312 51.546875 C 96.328125 60.273438 98.96875 67.878906 98.953125 76.113281 Z M 39.929688 95.027344 L 19.476562 72.726562 C 15.847656 68.679688 14.199219 65.925781 13.207031 63.183594 C 10.898438 67.398438 9.578125 71.925781 9.578125 76.605469 C 9.578125 85.65625 14.699219 94.550781 23.765625 100.523438 L 43.058594 113.453125 L 43.058594 105.851562 C 43.058594 101 43.214844 98.738281 39.929688 95.027344 Z M 49.484375 91.472656 L 71.109375 67.878906 C 76.21875 62.394531 77.207031 59.320312 77.207031 56.085938 C 77.207031 53.007812 76.390625 50.269531 72.589844 45.25 L 49.496094 15.839844 L 26.40625 45.25 C 22.445312 50.269531 21.785156 53.007812 21.785156 56.085938 C 21.785156 59.316406 22.761719 62.382812 27.882812 67.878906 Z M 89.414062 76.589844 C 89.414062 71.898438 88.09375 67.375 85.785156 63.171875 C 84.792969 65.925781 83.144531 68.679688 79.515625 72.714844 L 59.0625 95.015625 C 55.765625 98.738281 55.921875 101 55.921875 105.851562 L 55.921875 113.453125 L 75.214844 100.523438 C 84.292969 94.535156 89.398438 85.65625 89.414062 76.589844 Z M 89.414062 76.589844 "/>
</g>
</svg>
